<svg width="103" height="46" viewBox="0 0 103 46" fill="none" xmlns="http://www.w3.org/2000/svg">
<g clip-path="url(#clip0_14_359)">
<path d="M66.2578 7.55385C65.5324 9.00973 64.807 10.4656 64.0595 11.9656C64.785 11.9656 65.5104 11.9656 66.2578 11.9656C66.1127 12.2568 65.9676 12.548 65.8182 12.848C64.9476 12.848 64.0771 12.848 63.1802 12.848C63.1083 13.0828 63.0363 13.3176 62.9622 13.5595C61.9849 16.6345 60.6825 19.5073 59.3238 22.428C58.3699 24.5085 57.5803 26.5076 57.0251 28.7303C57.5781 28.275 58.1268 27.8143 58.6738 27.3516C59.1328 26.9678 59.1328 26.9678 59.6012 26.5761C61.471 24.7204 62.5724 22.5396 63.5804 20.1274C63.6919 19.8632 63.8034 19.5991 63.9182 19.3269C64.2702 18.4918 64.6184 17.6553 64.9663 16.8186C65.3164 15.9821 65.6674 15.146 66.0191 14.3102C66.3378 13.5523 66.6543 12.7934 66.9706 12.0345C68.6823 8.1023 68.6823 8.1023 69.7939 7.54351C70.667 7.3999 71.54 7.25628 72.413 7.11267C72.1502 8.62808 71.7644 9.95487 71.161 11.3676C71.0037 11.7387 70.8465 12.1098 70.6844 12.4921C70.4383 13.0641 70.4383 13.0641 70.1872 13.6476C70.0215 14.0374 69.8557 14.4273 69.6849 14.829C69.2772 15.7871 68.8675 16.7444 68.4561 17.7009C68.8913 17.5553 69.3266 17.4097 69.7751 17.2597C72.7174 17.5652 72.7174 17.5652 73.2923 18.1421C73.2923 22.195 71.4587 25.5763 69.7751 29.1715C71.3669 28.7238 71.3669 28.7238 72.3837 27.5195C72.5384 27.1911 72.6932 26.8627 72.8526 26.5244C73.3874 25.7355 73.9292 24.9513 74.4756 24.1703C76.4771 21.1829 77.9588 18.0571 79.42 14.7781C79.6752 14.2144 79.9308 13.6508 80.1868 13.0875C80.6494 12.0686 81.109 11.0486 81.5666 10.0275C81.8746 9.34467 82.191 8.6654 82.5251 7.99502C83.4336 7.71584 83.4336 7.71584 84.531 7.4987C84.8943 7.42477 85.2575 7.35084 85.6318 7.27467C85.9124 7.22121 86.1929 7.16775 86.482 7.11267C85.9029 8.9688 85.2018 10.6792 84.3438 12.4223C84.0987 12.9253 83.8536 13.4283 83.601 13.9466C83.091 14.9855 82.5804 16.0241 82.0691 17.0624C79.033 22.6614 79.033 22.6614 77.6889 28.7303C80.4827 26.7445 81.9078 24.3048 83.4937 21.3372C85.1586 18.3227 85.1586 18.3227 86.5008 17.7767C87.3739 17.6044 88.2469 17.4321 89.1199 17.2597C88.458 19.4784 87.5119 21.445 86.4545 23.4913C86.1362 24.1074 85.8196 24.7244 85.5047 25.3422C85.3653 25.6119 85.2258 25.8815 85.0822 26.1593C84.7053 27.0061 84.4817 27.826 84.2837 28.7303C87.5011 26.9367 88.4821 25.211 89.642 21.8369C90.9119 18.4011 90.9119 18.4011 92.3967 17.4545C93.405 17.2493 94.2527 17.1644 95.2751 17.2597C94.6184 19.3963 93.7581 21.3686 92.802 23.3811C92.6592 23.6847 92.5164 23.9884 92.3692 24.3013C92.0202 25.043 91.6694 25.7838 91.3182 26.5244C91.8788 26.0487 92.437 25.5702 92.9943 25.0906C93.3055 24.8245 93.6166 24.5583 93.9372 24.2841C94.8618 23.463 94.8618 23.463 95.555 22.4504C95.7528 22.1934 95.9506 21.9363 96.1544 21.6715C96.4445 21.6715 96.7347 21.6715 97.0337 21.6715C96.4578 23.3696 95.7914 24.402 94.5057 25.6421C94.2178 25.9242 93.9298 26.2062 93.6332 26.4969C92.6371 27.4068 92.6371 27.4068 91.3113 28.4063C89.757 29.6954 89.0549 31.2126 88.2406 33.0318C87.9413 33.6628 87.6402 34.293 87.3372 34.9223C87.1923 35.2238 87.0473 35.5253 86.898 35.8359C85.4922 38.6593 83.8501 41.098 81.2061 42.848C79.9421 42.9858 79.9421 42.9858 79.0078 42.848C78.3416 41.5108 78.3401 40.3226 78.5682 38.8774C79.723 35.5471 81.687 33.2509 84.2837 30.9362C83.8666 30.8361 83.4494 30.736 83.0197 30.6329C81.6457 30.0538 81.6457 30.0538 81.0412 28.8958C80.9052 28.3771 80.9052 28.3771 80.7664 27.848C80.538 28.039 80.3096 28.2301 80.0743 28.427C79.7677 28.6727 79.4611 28.9184 79.1452 29.1715C78.8443 29.4172 78.5433 29.6629 78.2333 29.916C77.06 30.6064 76.39 30.6733 75.0509 30.495C74.1716 29.6127 74.1716 29.6127 74.1166 28.0134C74.1348 27.522 74.1529 27.0307 74.1716 26.5244C73.9851 26.7741 73.7987 27.0238 73.6066 27.281C71.4905 29.9365 71.4905 29.9365 69.4178 30.5502C68.0164 30.495 68.0164 30.495 67.1371 29.6127C66.902 27.4802 67.3852 26.2021 68.4011 24.3461C69.4116 22.4259 70.1758 20.6964 70.6544 18.5833C67.6651 19.6994 66.7083 21.5093 65.4236 24.2903C64.4981 26.3455 63.6128 28.4167 62.7406 30.495C61.725 30.495 60.7094 30.495 59.663 30.495C59.8081 29.6215 59.9532 28.748 60.1026 27.848C59.7218 28.2028 59.3409 28.5577 58.9485 28.9233C57.6232 30.0327 56.5892 30.4548 54.8268 30.495C53.7894 29.4541 53.7314 28.8278 53.5078 27.4068C53.3163 27.5928 53.1247 27.7787 52.9273 27.9703C51.2922 29.4797 50.125 30.495 47.7923 30.495C47.5021 30.2038 47.212 29.9127 46.913 29.6127C46.913 26.3927 47.9814 24.0175 49.386 21.151C50.0194 19.9167 50.0194 19.9167 50.4302 18.5833C48.4141 19.0593 47.4663 20.1174 46.3085 21.7422C44.732 24.5067 43.6523 27.5276 42.5164 30.495C41.5008 30.495 40.4852 30.495 39.4388 30.495C39.5839 29.4759 39.729 28.4568 39.8785 27.4068C39.6155 27.7526 39.3526 28.0983 39.0816 28.4546C37.9461 29.8219 37.2529 30.4289 35.482 30.688C34.163 30.495 34.163 30.495 33.3386 29.3921C33.1754 29.0281 33.0122 28.6641 32.844 28.2891C32.4904 28.7123 32.4904 28.7123 32.1296 29.1439C30.855 30.2547 30.1222 30.4264 28.4475 30.495C27.2109 30.1366 27.2109 30.1366 26.2492 29.6127C25.4719 28.0527 25.5855 26.4629 25.8095 24.7597C26.9138 21.4454 28.814 18.8405 31.9647 17.2597C32.7891 17.2011 32.7891 17.2011 33.7233 17.2046C34.1858 17.2029 34.1858 17.2029 34.6576 17.2011C35.482 17.2597 35.482 17.2597 36.3613 17.7009C36.5063 18.1377 36.6514 18.5744 36.8009 19.0244C36.946 18.7333 37.0911 18.4421 37.2406 18.1421C38.1491 17.8629 38.1491 17.8629 39.2465 17.6458C39.6098 17.5718 39.9731 17.4979 40.3474 17.4217C40.6279 17.3683 40.9084 17.3148 41.1975 17.2597C40.2193 19.8664 38.963 22.3507 37.7635 24.8597C37.5904 25.2237 37.4172 25.5876 37.2389 25.9626C37.081 26.2928 36.9231 26.623 36.7605 26.9632C36.3167 27.9062 36.3167 27.9062 35.9216 29.1715C39.9554 26.9995 42.4233 22.3929 43.8354 18.1421C44.7439 17.8198 44.7439 17.8198 45.8413 17.6182C46.3862 17.5133 46.3862 17.5133 46.9422 17.4062C47.2227 17.3579 47.5033 17.3095 47.7923 17.2597C47.7923 17.6965 47.7923 18.1333 47.7923 18.5833C48.0281 18.3649 48.2638 18.1465 48.5067 17.9215C49.8311 17.0822 50.6486 17.0917 52.1888 17.2597C53.0682 18.1421 53.0682 18.1421 53.2193 19.5414C53.0491 21.443 52.4422 22.7949 51.5294 24.4288C50.3612 26.4548 50.3612 26.4548 49.9906 28.7303C54.9735 25.1885 57.2328 18.7303 59.663 13.2891C59.0826 13.1436 58.5023 12.998 57.9044 12.848C57.9044 12.5568 57.9044 12.2656 57.9044 11.9656C58.3034 11.9656 58.7023 11.9656 59.1134 11.9656C60.5587 11.6933 60.5587 11.6933 61.0163 10.7403C61.1501 10.4258 61.2838 10.1113 61.4216 9.7873C62.1547 8.0699 62.1547 8.0699 63.6474 7.30569C64.9389 7.11267 64.9389 7.11267 66.2578 7.55385Z" fill="#371D20"/>
<path d="M29.7665 6.23035C30.9755 6.34064 30.9755 6.34064 31.9648 6.67152C32.2945 7.44358 32.2945 7.44358 32.4044 8.43623C31.69 9.42888 31.69 9.42888 30.6458 10.2009C29.4367 10.3112 29.4367 10.3112 28.4475 10.2009C28.401 10.4955 28.3546 10.7901 28.3067 11.0936C27.9374 12.7163 27.3478 14.2256 26.7438 15.7708C25.9577 17.821 25.2243 19.843 24.683 21.9748C23.2524 27.5165 21.326 32.3852 16.5768 35.7892C14.2387 37.0492 12.5766 37.3647 9.98199 37.1127C8.36479 36.3915 7.34461 35.5695 6.46475 34.0245C6.41035 33.5968 6.35594 33.1691 6.29988 32.7285C5.9433 30.9752 5.12923 30.3478 3.82682 29.1715C2.99334 27.4988 3.1228 25.6954 3.38717 23.8774C4.67987 20.7731 7.01674 18.7343 9.98199 17.2598C11.5483 16.8737 11.5483 16.8737 12.6199 16.8186C11.5632 17.6668 10.5543 18.3045 9.34999 18.9417C7.24962 20.1312 6.03048 21.6201 4.98092 23.8223C4.61903 25.6379 4.7888 26.9094 5.14579 28.7303C5.43596 29.1671 5.72613 29.6039 6.0251 30.0539C6.14298 29.7178 6.26086 29.3817 6.38232 29.0354C7.92083 24.9676 9.95464 21.4926 13.9389 19.4656C15.185 19.2561 16.1752 19.3603 17.4561 19.4656C18.3354 20.348 18.3354 20.348 18.5003 21.7267C18.1556 25.3008 16.1011 28.104 13.4992 30.4951C11.5506 31.7914 9.65232 31.9604 7.34406 31.8186C7.68273 33.3574 7.68273 33.3574 8.22337 34.9068C10.569 35.6914 12.3937 35.5858 14.6808 34.7689C16.8239 33.3449 17.4637 31.0571 18.3354 28.7303C18.5999 28.0255 18.8644 27.3206 19.1289 26.6158C19.2722 26.2339 19.4155 25.852 19.5632 25.4585C19.7112 25.0641 19.8592 24.6697 20.0116 24.2634C20.1602 23.8654 20.3087 23.4673 20.4618 23.0572C22.1853 18.4905 24.1038 13.9102 26.6889 9.75976C25.8622 9.65417 25.0352 9.55031 24.2072 9.45473C23.518 9.36412 22.8314 9.2503 22.1498 9.1135C20.2344 8.74298 20.2344 8.74298 18.4247 9.29446C17.6198 9.93926 17.6198 9.93926 16.5768 11.0833C16.3048 11.3472 16.0327 11.611 15.7525 11.8829C15.5892 12.0558 15.426 12.2287 15.2579 12.4068C15.8035 10.2167 16.4718 9.25738 18.3354 7.99505C19.4989 7.41131 20.3881 7.49543 21.6878 7.49873C22.1605 7.49987 22.6331 7.501 23.1201 7.50218C24.2782 7.54586 25.3334 7.67404 26.4691 7.88476C27.2308 7.93935 27.2308 7.93935 28.0079 7.99505C28.9697 7.14027 28.9697 7.14027 29.7665 6.23035Z" fill="#3B2224"/>
<path d="M33.7233 17.2045C34.1858 17.2028 34.1858 17.2028 34.6576 17.2011C35.482 17.2597 35.482 17.2597 36.3613 17.7009C36.5063 18.1376 36.6514 18.5744 36.8009 19.0244C36.946 18.7332 37.0911 18.442 37.2406 18.142C38.1491 17.8629 38.1491 17.8629 39.2465 17.6457C39.6098 17.5718 39.9731 17.4979 40.3474 17.4217C40.7682 17.3415 40.7682 17.3415 41.1975 17.2597C40.2193 19.8664 38.963 22.3506 37.7635 24.8596C37.5904 25.2236 37.4172 25.5876 37.2389 25.9626C37.081 26.2928 36.9231 26.623 36.7605 26.9632C36.3167 27.9062 36.3167 27.9062 35.9216 29.1715C39.9554 26.9995 42.4233 22.3929 43.8354 18.142C44.7439 17.8198 44.7439 17.8198 45.8413 17.6181C46.2046 17.5482 46.5679 17.4782 46.9422 17.4062C47.2227 17.3578 47.5033 17.3095 47.7923 17.2597C47.7923 17.6965 47.7923 18.1332 47.7923 18.5832C48.0281 18.3648 48.2638 18.1465 48.5067 17.9215C49.8311 17.0821 50.6486 17.0917 52.1888 17.2597C53.0682 18.142 53.0682 18.142 53.2193 19.5414C53.0491 21.4429 52.4422 22.7948 51.5294 24.4288C50.3612 26.4548 50.3612 26.4548 49.9906 28.7303C50.4958 28.3093 50.9993 27.8861 51.5019 27.4619C51.9227 27.1087 51.9227 27.1087 52.352 26.7484C53.1157 26.1175 53.1157 26.1175 53.5078 25.2009C53.9431 25.3465 54.3783 25.492 54.8268 25.642C54.2621 27.3419 53.5016 27.7795 52.0789 28.8406C51.6595 29.1613 51.2402 29.4821 50.8081 29.8125C49.5509 30.495 49.5509 30.495 48.3213 30.4054C47.3526 30.0538 47.3526 30.0538 46.913 29.6126C46.9665 26.3881 47.9758 24.0288 49.386 21.151C50.0194 19.9166 50.0194 19.9166 50.4302 18.5832C48.4141 19.0592 47.4663 20.1174 46.3085 21.7421C44.732 24.5066 43.6523 27.5276 42.5164 30.495C41.5008 30.495 40.4852 30.495 39.4388 30.495C39.5839 29.4759 39.729 28.4568 39.8785 27.4068C39.6155 27.7525 39.3526 28.0983 39.0816 28.4545C37.9461 29.8219 37.2529 30.4288 35.482 30.688C34.163 30.495 34.163 30.495 33.3386 29.392C33.1754 29.0281 33.0122 28.6641 32.844 28.2891C32.6083 28.5712 32.3725 28.8533 32.1296 29.1439C30.855 30.2546 30.1222 30.4264 28.4475 30.495C27.2109 30.1365 27.2109 30.1365 26.2492 29.6126C25.4719 28.0527 25.5855 26.4628 25.8095 24.7597C27.0087 21.1607 29.5764 17.1892 33.7233 17.2045Z" fill="#392022"/>
<path d="M89.1199 17.2597C88.4579 19.4784 87.5119 21.445 86.4545 23.4914C86.1362 24.1074 85.8196 24.7244 85.5047 25.3422C85.3653 25.6119 85.2258 25.8815 85.0822 26.1593C84.7053 27.0061 84.4817 27.826 84.2837 28.7303C87.5011 26.9367 88.4821 25.211 89.642 21.8369C90.9119 18.4011 90.9119 18.4011 92.3967 17.4545C93.405 17.2493 94.2527 17.1644 95.2751 17.2597C94.6184 19.3963 93.7581 21.3686 92.802 23.3811C92.5878 23.8366 92.5878 23.8366 92.3692 24.3013C92.0202 25.043 91.6694 25.7838 91.3182 26.5244C91.8788 26.0487 92.437 25.5702 92.9943 25.0906C93.3055 24.8245 93.6166 24.5583 93.9372 24.2841C94.8618 23.463 94.8618 23.463 95.555 22.4505C95.7528 22.1934 95.9506 21.9363 96.1544 21.6715C96.4445 21.6715 96.7347 21.6715 97.0337 21.6715C96.4578 23.3696 95.7913 24.402 94.5057 25.6421C94.2177 25.9242 93.9298 26.2062 93.6332 26.4969C92.6371 27.4068 92.6371 27.4068 91.3113 28.4063C89.757 29.6954 89.0549 31.2126 88.2406 33.0318C87.9413 33.6629 87.6402 34.293 87.3372 34.9223C87.1198 35.3745 87.1198 35.3745 86.898 35.8359C85.4922 38.6594 83.8501 41.098 81.2061 42.848C79.9421 42.9858 79.9421 42.9858 79.0078 42.848C78.3415 41.5108 78.34 40.3226 78.5682 38.8774C79.723 35.5471 81.687 33.2509 84.2837 30.9362C83.8665 30.8361 83.4494 30.736 83.0197 30.6329C81.6457 30.0539 81.6457 30.0539 81.0412 28.8958C80.9505 28.55 80.8599 28.2042 80.7664 27.848C79.8959 28.5759 79.0254 29.3039 78.1285 30.0539C77.9834 29.6171 77.8383 29.1803 77.6888 28.7303C78.1241 28.421 78.5594 28.1116 79.0078 27.7928C81.0876 26.0283 82.2283 23.7051 83.4937 21.3372C85.1577 18.3243 85.1577 18.3243 86.9491 17.5906C88.2406 17.2597 88.2406 17.2597 89.1199 17.2597Z" fill="#381F22"/>
<path d="M89.1199 17.2596C88.4579 19.4783 87.5119 21.4449 86.4545 23.4913C86.1362 24.1074 85.8196 24.7243 85.5047 25.3421C85.3653 25.6118 85.2258 25.8814 85.0822 26.1592C84.7053 27.006 84.4817 27.8259 84.2837 28.7302C85.8071 28.5118 85.8071 28.5118 87.3613 28.2891C87.2162 28.7258 87.0711 29.1626 86.9216 29.6126C86.6314 29.7582 86.3413 29.9038 86.0423 30.0538C86.0701 30.5373 86.0701 30.5373 86.0985 31.0306C86.0032 33.1129 84.9209 34.7251 83.9539 36.5335C83.759 36.916 83.564 37.2984 83.3631 37.6925C83.1704 38.0579 82.9778 38.4233 82.7792 38.7997C82.5168 39.2985 82.5168 39.2985 82.249 39.8074C81.5589 40.7621 80.9661 41.0892 79.8871 41.5243C79.5257 38.7682 80.7992 36.7979 82.0854 34.4655C81.6501 34.7567 81.2149 35.0479 80.7664 35.3479C81.4923 33.4542 82.8493 32.3129 84.2837 30.9361C83.8665 30.836 83.4494 30.7359 83.0197 30.6328C81.6457 30.0538 81.6457 30.0538 81.0412 28.8957C80.9505 28.5499 80.8599 28.2041 80.7664 27.8479C79.8959 28.5758 79.0254 29.3038 78.1285 30.0538C77.9834 29.617 77.8383 29.1802 77.6888 28.7302C78.1241 28.4209 78.5594 28.1115 79.0078 27.7927C81.0876 26.0282 82.2283 23.705 83.4937 21.3371C85.1577 18.3242 85.1577 18.3242 86.9491 17.5905C88.2406 17.2596 88.2406 17.2596 89.1199 17.2596Z" fill="#371E21"/>
<path d="M17.0164 19.9068C17.4561 20.348 17.4561 20.348 17.4956 21.12C17.2673 24.5031 15.9669 26.8832 13.4322 29.1267C11.3467 30.6506 9.9149 31.2655 7.34399 30.9362C7.40128 27.3721 8.47018 25.1895 10.8612 22.5538C12.8058 20.879 14.3725 19.6623 17.0164 19.9068Z" fill="#F2F4F3"/>
<path d="M12.6199 17.2597C12.3332 17.3831 12.0464 17.5065 11.7509 17.6337C8.54335 19.1101 6.517 20.6436 4.95344 23.8498C4.53332 26.145 4.70725 28.0702 6.0251 30.0538C6.14298 29.7177 6.26086 29.3816 6.38232 29.0353C7.92083 24.9675 9.95464 21.4926 13.9389 19.4656C15.185 19.2561 16.1752 19.3602 17.4561 19.4656C18.3354 20.348 18.3354 20.348 18.5003 21.7266C18.1556 25.3007 16.1011 28.104 13.4992 30.495C11.5506 31.7913 9.65232 31.9604 7.34406 31.8185C7.68273 33.3574 7.68273 33.3574 8.22337 34.9068C9.60798 35.3699 10.5923 35.3926 12.0429 35.3755C12.4798 35.3715 12.9168 35.3676 13.367 35.3635C13.8677 35.3558 13.8677 35.3558 14.3785 35.3479C14.0884 35.9303 13.7982 36.5127 13.4992 37.1127C9.67546 37.3078 9.67546 37.3078 7.78372 35.7891C6.76911 34.7346 6.48671 34.197 6.29988 32.7285C5.9433 30.9752 5.12923 30.3477 3.82682 29.1715C2.99334 27.4988 3.1228 25.6953 3.38717 23.8774C4.69593 20.7345 7.04274 18.8327 9.98199 17.2597C11.301 16.8185 11.301 16.8185 12.6199 17.2597ZM9.93734 23.5723C8.08155 26.0285 7.39353 27.8586 7.34406 30.9362C9.91497 31.2655 11.3467 30.6506 13.4323 29.1267C15.967 26.8832 17.2674 24.5031 17.4956 21.12C17.5416 20.3352 17.5416 20.3352 17.0165 19.9068C13.9823 19.6262 11.9021 21.4065 9.93734 23.5723Z" fill="#402829"/>
<path d="M35.482 18.1421C36.2999 21.1908 35.5699 22.9958 34.084 25.7352C33.0437 27.3347 31.9159 28.7196 30.2061 29.6127C29.6258 29.6127 29.0454 29.6127 28.4475 29.6127C28.0164 25.8637 29.5459 22.8262 31.7861 19.862C33.0829 18.4612 33.5212 18.1421 35.482 18.1421Z" fill="#F2F4F3"/>
<path d="M85.1631 31.8185C85.3081 32.1097 85.4532 32.4008 85.6027 32.7008C85.087 33.89 84.5462 35.0252 83.954 36.1751C83.7953 36.493 83.6366 36.8109 83.4731 37.1384C81.8637 40.3158 81.8637 40.3158 80.7665 41.5244C80.4763 41.5244 80.1862 41.5244 79.8872 41.5244C79.4387 38.674 80.9349 36.6867 82.5251 34.4655C83.3628 33.5076 84.2191 32.6755 85.1631 31.8185Z" fill="#F2F4F3"/>
<path d="M15.6975 19.3828C16.1599 19.3735 16.1599 19.3735 16.6317 19.3639C17.4561 19.4656 17.4561 19.4656 18.3354 20.3479C18.3904 21.9472 18.3904 21.9472 18.3354 23.4362C17.5677 22.2805 17.2859 21.6546 17.0164 20.3479C14.1711 20.4669 12.4628 21.4568 10.4216 23.4362C8.54069 25.7049 7.79015 28.0498 7.34403 30.9362C7.05386 30.645 6.76369 30.3538 6.46472 30.0538C6.46472 27.0047 8.41324 24.1595 10.468 22.0402C13.436 19.4037 13.436 19.4037 15.6975 19.3828Z" fill="#4B3533"/>
<path d="M83.8441 27.8479C83.9892 28.1391 84.1342 28.4303 84.2837 28.7303C85.8071 28.5119 85.8071 28.5119 87.3613 28.2891C87.2162 28.7258 87.0711 29.1626 86.9217 29.6126C86.4864 29.831 86.4864 29.831 86.0423 30.0538C86.0423 30.7817 86.0423 31.5097 86.0423 32.2597C85.7884 32.378 85.5345 32.4962 85.2729 32.6181C84.2709 33.1156 84.2709 33.1156 83.4044 33.8038C82.5562 34.4421 81.7257 34.901 80.7665 35.3479C81.3928 33.7139 82.4391 32.7437 83.6947 31.5824C84.3941 30.903 84.3941 30.903 84.7234 29.6126C84.4332 29.6126 84.143 29.6126 83.8441 29.6126C83.8441 29.0303 83.8441 28.4479 83.8441 27.8479Z" fill="#402929"/>
<path d="M39.8785 25.6421C40.3137 25.7877 40.749 25.9333 41.1975 26.0833C40.4151 27.2609 39.7873 27.9242 38.7244 28.813C38.4467 29.0468 38.169 29.2805 37.8829 29.5213C37.6709 29.6971 37.4589 29.8728 37.2406 30.0539C37.0955 29.6171 36.9504 29.1803 36.8009 28.7303C37.4736 28.1846 38.1462 27.6389 38.8189 27.0931C39.4972 26.5392 39.4972 26.5392 39.8785 25.6421Z" fill="#442D2C"/>
<path d="M83.844 27.8479C83.9891 28.1391 84.1342 28.4303 84.2836 28.7303C85.8071 28.5119 85.8071 28.5119 87.3612 28.2891C87.2161 28.7258 87.0711 29.1626 86.9216 29.6126C85.795 30.1365 85.795 30.1365 84.7233 30.495C84.7233 30.2038 84.7233 29.9126 84.7233 29.6126C84.4331 29.6126 84.143 29.6126 83.844 29.6126C83.844 29.0303 83.844 28.4479 83.844 27.8479Z" fill="#6A564E"/>
<path d="M81.6457 26.5244C81.6457 27.3979 81.6457 28.2715 81.6457 29.1715C81.3556 28.7347 81.0654 28.2979 80.7664 27.8479C79.4607 28.9399 79.4607 28.9399 78.1285 30.0538C77.9834 29.6171 77.8383 29.1803 77.6888 28.7303C80.3126 26.5244 80.3126 26.5244 81.6457 26.5244Z" fill="#4D3634"/>
<path d="M97.0337 21.6715C96.4042 23.8823 95.2819 24.7353 93.5165 26.0833C93.5165 24.5197 93.7846 24.2733 94.7805 23.1329C95.0151 22.8582 95.2498 22.5835 95.4915 22.3005C96.1544 21.6715 96.1544 21.6715 97.0337 21.6715Z" fill="#4B3533"/>
<path d="M12.6199 17.2597C12.3179 17.4087 12.0158 17.5577 11.7046 17.7112C11.3084 17.908 10.9123 18.1047 10.5041 18.3075C9.91497 18.5992 9.91497 18.5992 9.31394 18.8969C8.15939 19.4738 8.15939 19.4738 6.90442 20.3479C6.90442 19.9112 6.90442 19.4744 6.90442 19.0244C7.60684 18.6422 8.31281 18.2666 9.02026 17.8939C9.41301 17.684 9.80577 17.4742 10.2104 17.258C11.301 16.8185 11.301 16.8185 12.6199 17.2597Z" fill="#4E3836"/>
<path d="M53.5079 25.2009C53.9431 25.3465 54.3784 25.4921 54.8269 25.6421C54.2407 27.4068 53.2899 27.7764 51.7493 28.7303C51.7493 27.0061 52.4112 26.4733 53.5079 25.2009Z" fill="#4C3533"/>
<path d="M18.3354 7.995C18.6256 8.28617 18.9157 8.57735 19.2147 8.87735C18.8067 9.21402 18.3986 9.55069 17.9782 9.89757C17.024 10.6943 16.1126 11.5013 15.2578 12.4068C15.8027 10.2199 16.4826 9.26709 18.3354 7.995Z" fill="#493331"/>
<path d="M4.26644 26.9656C4.38432 27.2204 4.5022 27.4751 4.62366 27.7376C5.15331 28.7447 5.76477 29.6011 6.46471 30.495C6.31963 30.7862 6.17454 31.0773 6.02506 31.3773C4.89844 30.4123 4.89844 30.4123 3.82678 29.1715C3.90922 27.9306 3.90922 27.9306 4.26644 26.9656Z" fill="#493231"/>
<path d="M60.982 26.5244C60.982 26.8156 60.982 27.1068 60.982 27.4068C60.3088 27.9755 60.3088 27.9755 59.4432 28.5649C59.1576 28.7616 58.8719 28.9584 58.5776 29.1611C58.3555 29.3101 58.1333 29.4591 57.9044 29.6126C58.3366 27.6324 58.7992 26.5244 60.982 26.5244Z" fill="#442C2C"/>
<path d="M13.0595 35.3479C13.4948 35.4935 13.93 35.6391 14.3785 35.7891C13.9432 36.4442 13.9432 36.4442 13.4992 37.1126C12.6439 37.2419 12.6439 37.2419 11.6856 37.1953C11.1234 37.168 10.5612 37.1407 9.98193 37.1126C9.98193 36.967 9.98193 36.8214 9.98193 36.6714C10.6212 36.4667 10.6212 36.4667 11.2734 36.2578C12.5498 35.9235 12.5498 35.9235 13.0595 35.3479Z" fill="#503937"/>
<path d="M73.7319 25.2009C74.1672 25.2009 74.6024 25.2009 75.0509 25.2009C75.0509 25.4921 75.0509 25.7833 75.0509 26.0833C74.1895 26.8396 73.3104 27.5762 72.413 28.2892C72.413 26.7326 72.6956 26.3179 73.7319 25.2009Z" fill="#4B3433"/>
</g>
<defs>
<clipPath id="clip0_14_359">
<rect width="102" height="45" fill="white" transform="translate(0.30957 0.494995)"/>
</clipPath>
</defs>
</svg>
